{"glyphs":{":":{"x_min":0,"x_max":207,"ha":207,"o":"m 44 331 q 44 357 60 373 q 77 389 105 389 q 133 389 148 374 q 164 358 164 331 q 164 302 148 286 q 133 270 105 270 q 77 270 60 286 q 44 303 44 331 z m 44 50 q 44 76 60 92 q 77 108 105 108 q 133 108 148 92 q 164 77 164 50 q 164 21 148 5 q 133 -11 105 -11 q 77 -11 60 6 q 44 22 44 50 z"},"$":{"x_min":0,"x_max":526,"ha":526,"o":"m 291 -9 l 291 -108 q 291 -115 277 -115 q 262 -115 262 -108 l 262 -12 l 247 -12 q 202 -12 153 0 q 104 13 87 28 q 82 32 80 36 q 77 39 77 47 l 74 206 l 74 207 q 74 211 79 212 q 84 212 85 208 q 113 151 135 114 q 157 76 189 47 q 221 18 262 14 l 262 268 q 249 278 221 296 q 173 327 146 349 q 120 371 101 402 q 82 433 82 475 q 82 546 134 587 q 187 628 262 635 l 262 719 q 262 723 266 725 q 271 727 277 727 q 283 727 287 725 q 291 723 291 719 l 291 636 l 292 636 q 327 636 363 630 q 399 623 421 614 q 430 610 433 606 q 436 601 436 594 l 436 447 q 436 444 431 442 q 426 441 425 444 l 416 464 q 394 519 366 560 q 339 600 291 611 l 291 373 l 311 360 q 361 328 391 304 q 421 280 442 246 q 463 211 463 166 q 463 97 416 50 q 368 2 291 -9 z m 262 393 l 262 614 q 223 613 198 590 q 174 567 174 524 q 174 484 197 454 q 220 423 262 393 z m 365 108 q 365 151 346 184 q 326 218 291 246 l 291 14 q 324 18 344 40 q 365 63 365 108 z"},"?":{"x_min":0,"x_max":339,"ha":339,"o":"m 137 565 q 135 537 124 516 q 112 496 80 496 q 54 496 42 510 q 30 524 30 543 q 30 578 68 602 q 107 625 165 625 q 230 625 274 594 q 319 563 319 506 q 319 468 300 444 q 281 419 244 389 l 222 371 q 191 344 177 314 q 163 285 163 248 q 163 233 168 195 q 170 192 162 190 q 154 188 152 191 q 140 218 133 253 q 126 288 126 312 q 126 342 136 362 q 145 381 164 405 q 185 431 196 456 q 208 480 208 519 q 208 557 196 582 q 185 606 165 606 q 151 606 145 595 q 139 584 137 565 z m 92 50 q 92 76 108 92 q 125 108 153 108 q 181 108 196 92 q 212 77 212 50 q 212 21 196 5 q 181 -11 153 -11 q 125 -11 108 6 q 92 22 92 50 z"},"<":{"x_min":0,"x_max":407,"ha":407,"o":"m 377 46 q 377 22 370 25 l 36 173 q 31 176 31 190 q 31 205 36 207 l 370 354 q 373 356 375 350 q 377 344 377 334 q 377 310 370 306 l 98 190 l 370 74 q 377 71 377 46 z"},"'":{"x_min":0,"x_max":150,"ha":150,"o":"m 28 606 q 27 618 60 630 q 93 641 119 641 q 128 641 132 638 q 137 636 136 632 l 73 366 q 71 364 64 363 q 57 362 57 365 z"},"=":{"x_min":0,"x_max":468,"ha":468,"o":"m 29 261 q 29 269 30 276 q 32 283 33 283 l 434 283 q 436 283 438 276 q 439 268 439 260 q 439 251 438 244 q 436 236 434 236 l 34 236 q 32 236 30 244 q 29 252 29 261 z m 29 121 q 29 129 30 136 q 32 143 33 143 l 434 143 q 436 143 438 136 q 439 128 439 120 q 439 111 438 104 q 436 96 434 96 l 34 96 q 32 96 30 104 q 29 112 29 121 z"},"a":{"x_min":0,"x_max":490,"ha":490,"o":"m 485 65 q 488 65 490 60 q 493 55 490 54 l 352 -13 q 350 -14 347 -14 q 338 -14 330 4 q 323 22 321 53 q 288 22 255 4 q 222 -13 182 -13 q 141 -13 106 8 q 72 28 52 68 q 32 108 32 164 q 32 235 65 288 q 98 342 152 370 q 206 398 268 398 q 322 398 365 372 q 388 382 404 398 q 405 399 407 399 q 409 399 412 398 q 414 396 414 394 l 414 109 q 414 79 420 66 q 427 54 442 54 q 455 54 483 65 z m 320 72 l 320 82 l 320 288 q 320 327 298 352 q 277 377 242 377 q 192 377 164 327 q 135 277 135 198 q 135 123 160 82 q 186 40 233 40 q 273 40 320 72 z"},"L":{"x_min":0,"x_max":545,"ha":545,"o":"m 213 85 q 213 59 217 48 q 221 36 232 32 q 244 28 270 28 l 304 28 q 382 28 439 70 q 496 111 515 182 q 515 184 519 184 q 521 184 524 182 q 526 181 526 180 q 517 81 517 15 q 517 7 514 4 q 510 0 502 0 l 30 0 q 28 0 28 6 q 28 12 30 12 q 62 12 76 17 q 91 22 96 36 q 102 51 102 81 l 102 544 q 102 574 96 588 q 91 602 76 608 q 61 613 30 613 q 28 613 28 619 q 28 625 30 625 l 81 624 q 127 622 157 622 q 187 622 233 624 l 284 625 q 287 625 287 619 q 287 613 284 613 q 253 613 238 608 q 223 602 218 588 q 213 573 213 543 z"},"3":{"x_min":0,"x_max":435,"ha":435,"o":"m 399 175 q 399 91 344 40 q 290 -12 202 -12 q 106 -12 37 63 l 36 65 q 36 69 40 72 q 45 74 47 71 q 68 51 99 40 q 130 29 158 29 q 226 29 256 67 q 287 105 287 166 q 287 315 132 315 q 128 315 127 320 q 126 326 132 326 q 207 326 238 361 q 268 396 268 461 q 268 584 173 584 q 135 584 100 564 q 64 545 48 508 q 48 507 45 507 q 42 507 38 509 q 35 511 36 512 q 57 569 106 602 q 155 636 219 636 q 288 636 332 597 q 377 558 377 496 q 377 441 342 394 q 306 347 245 326 q 293 324 328 302 q 363 280 381 246 q 399 213 399 175 z"},";":{"x_min":0,"x_max":232,"ha":232,"o":"m 46 331 q 46 357 62 373 q 79 389 107 389 q 135 389 150 374 q 166 358 166 331 q 166 302 150 286 q 135 270 107 270 q 79 270 62 286 q 46 303 46 331 z m 184 2 q 184 -43 164 -82 q 144 -120 104 -159 q 103 -160 101 -160 q 98 -160 96 -157 q 94 -154 96 -152 q 145 -102 145 -34 q 145 -6 135 7 q 126 -8 98 -8 q 74 -8 60 8 q 45 23 45 48 q 45 75 62 90 q 80 106 110 106 q 145 106 164 79 q 184 52 184 2 z"},"J":{"x_min":0,"x_max":339,"ha":339,"o":"m 298 613 q 272 613 260 607 q 247 601 243 586 q 239 572 239 542 l 239 -4 q 239 -116 184 -179 q 128 -242 29 -242 q -9 -242 -33 -226 q -57 -210 -57 -182 q -57 -162 -44 -146 q -31 -131 -5 -131 q 20 -131 34 -146 q 47 -161 58 -188 q 64 -204 70 -212 q 76 -221 85 -221 q 106 -221 116 -187 q 126 -153 126 -74 l 126 544 q 126 574 120 588 q 113 602 96 608 q 79 613 42 613 q 40 613 40 619 q 40 625 42 625 l 104 624 q 152 622 181 622 q 209 622 251 624 l 298 625 q 301 625 301 619 q 301 613 298 613 z"},"V":{"x_min":0,"x_max":660,"ha":660,"o":"m 665 613 q 629 613 596 581 q 563 549 543 495 l 358 1 q 357 -3 347 -3 q 337 -3 336 1 l 81 542 q 63 578 45 596 q 27 613 5 613 q 2 613 2 619 q 2 625 5 625 q 20 625 26 624 q 46 622 78 622 q 164 622 224 624 q 240 625 264 625 q 267 625 267 619 q 267 613 264 613 q 234 613 218 600 q 201 588 201 565 q 201 548 212 524 l 385 155 l 515 498 q 525 526 525 546 q 525 577 506 595 q 488 613 453 613 q 450 613 450 619 q 450 625 453 625 l 502 624 q 544 622 577 622 q 596 622 624 624 l 665 625 q 668 625 668 619 q 668 613 665 613 z"},"\"":{"x_min":0,"x_max":302,"ha":302,"o":"m 28 606 q 27 618 60 630 q 93 641 119 641 q 128 641 132 638 q 137 636 136 632 l 73 366 q 71 364 64 363 q 57 362 57 365 z m 180 606 q 179 618 212 630 q 245 641 271 641 q 280 641 284 638 q 289 636 288 632 l 225 366 q 223 364 216 363 q 209 362 209 365 z"},"7":{"x_min":0,"x_max":429,"ha":429,"o":"m 198 0 l 112 0 q 104 0 100 4 q 96 9 99 16 l 327 518 q 331 525 323 525 q 175 525 122 521 q 69 517 56 506 q 43 494 32 457 q 30 455 27 455 q 24 455 22 456 q 19 458 20 460 l 64 651 q 65 654 71 654 q 77 653 76 650 q 75 646 75 640 q 75 631 84 628 q 94 625 123 625 l 388 625 q 392 625 395 620 q 398 615 396 612 l 221 23 q 217 10 212 5 q 208 0 198 0 z"},"S":{"x_min":0,"x_max":515,"ha":515,"o":"m 311 360 q 361 328 391 304 q 421 280 442 246 q 463 211 463 166 q 463 114 435 74 q 407 33 358 10 q 308 -12 247 -12 q 202 -12 153 0 q 104 13 87 28 q 82 32 80 36 q 77 39 77 47 l 74 206 l 74 207 q 74 211 79 212 q 84 212 85 208 q 115 147 138 109 q 160 71 194 42 q 229 13 273 13 q 313 13 339 34 q 365 56 365 108 q 365 152 346 185 q 326 218 298 241 q 270 264 221 296 q 173 327 146 349 q 120 371 101 402 q 82 433 82 475 q 82 528 112 564 q 143 601 191 618 q 239 636 292 636 q 327 636 363 630 q 399 623 421 614 q 430 610 433 606 q 436 601 436 594 l 436 447 q 436 444 431 442 q 426 441 425 444 l 417 463 q 392 526 358 570 q 325 614 265 614 q 225 614 200 591 q 174 568 174 524 q 174 488 192 460 q 211 432 238 411 q 265 390 311 360 z"},"}":{"x_min":0,"x_max":283,"ha":283,"o":"m 193 80 q 193 -6 180 -47 q 168 -88 135 -102 q 102 -117 33 -117 q 29 -117 29 -111 q 29 -105 33 -105 q 59 -105 73 -78 q 87 -50 88 1 q 90 122 96 172 q 103 222 126 252 q 149 281 205 305 q 149 328 126 356 q 103 385 96 435 q 90 485 88 607 q 87 658 73 686 q 59 713 33 713 q 29 713 29 719 q 29 725 33 725 q 102 725 134 710 q 167 696 180 656 q 193 615 193 529 q 193 434 204 376 q 216 317 251 311 q 254 311 254 304 q 254 298 251 298 q 216 292 204 234 q 193 176 193 80 z"},"Z":{"x_min":0,"x_max":605,"ha":605,"o":"m 411 600 q 414 605 414 606 q 413 608 406 608 q 292 608 232 600 q 173 591 135 564 q 97 536 69 478 q 68 477 65 477 q 56 477 57 481 l 97 655 q 97 656 101 656 q 111 656 109 653 q 108 650 108 645 q 108 633 120 629 q 131 625 166 625 l 531 625 q 536 625 538 620 q 541 615 538 612 l 192 27 q 188 22 189 20 q 190 19 196 19 l 398 19 q 434 19 468 38 q 502 56 526 87 q 550 118 556 153 q 557 156 562 156 q 567 156 567 153 l 553 8 q 553 5 550 2 q 548 -2 544 -2 q 395 0 65 0 q 61 0 59 4 q 57 9 60 13 z"},"x":{"x_min":0,"x_max":440,"ha":440,"o":"m 436 0 l 400 1 q 387 2 363 2 l 292 1 q 276 0 248 0 q 245 0 245 6 q 245 12 248 12 q 270 12 270 26 q 270 37 260 51 l 195 149 l 160 98 q 137 65 137 42 q 137 12 181 12 q 184 12 184 6 q 184 0 181 0 q 154 0 141 1 l 81 2 l 40 1 q 29 0 4 0 q 1 0 1 6 q 1 12 4 12 q 35 12 70 37 q 105 62 136 105 l 182 168 l 92 303 q 45 374 14 374 q 12 374 12 380 q 12 386 14 386 q 35 386 45 385 l 76 384 l 146 385 q 162 386 191 386 q 193 386 193 380 q 193 374 191 374 q 169 374 169 359 q 169 349 179 335 l 237 247 l 265 288 q 289 323 289 344 q 289 374 244 374 q 242 374 242 380 q 242 386 244 386 q 271 386 285 385 l 345 384 l 386 385 q 397 386 422 386 q 425 386 425 380 q 425 374 422 374 q 391 374 356 349 q 321 324 290 281 l 250 228 l 346 83 q 370 47 394 30 q 417 12 436 12 q 439 12 439 6 q 439 0 436 0 z"},")":{"x_min":0,"x_max":309,"ha":309,"o":"m 35 -117 q 33 -118 31 -116 q 29 -113 31 -111 q 94 -40 124 63 q 153 166 153 304 q 153 442 124 545 q 94 648 31 719 q 29 720 31 723 q 33 726 35 725 q 144 671 204 558 q 265 446 265 304 q 265 162 204 49 q 144 -64 35 -117 z"},"&":{"x_min":0,"x_max":716,"ha":716,"o":"m 725 0 l 561 0 q 533 0 465 49 q 390 -12 274 -12 q 205 -12 158 8 q 111 28 88 61 q 65 94 65 131 q 65 179 98 217 q 131 255 198 305 q 182 326 167 353 q 153 381 146 406 q 138 431 138 461 q 138 542 190 594 q 241 646 330 646 q 392 646 428 620 q 464 593 464 546 q 464 507 442 474 q 419 442 390 420 q 361 398 300 357 q 372 250 501 147 q 510 182 510 226 q 510 284 491 310 q 472 337 429 337 q 427 337 426 343 q 426 349 429 349 l 667 350 q 670 350 670 344 q 670 338 667 338 q 637 338 622 332 q 608 325 600 310 q 593 295 584 262 q 573 222 561 189 q 549 156 530 125 q 595 76 646 48 q 696 20 725 12 q 729 11 728 6 q 728 0 725 0 z m 287 378 q 358 447 358 525 q 358 569 338 594 q 317 619 284 619 q 256 619 244 601 q 232 583 232 547 q 232 469 287 378 z m 447 63 q 431 74 404 96 q 353 137 302 188 q 250 238 211 287 q 166 240 166 188 q 166 149 188 114 q 211 80 253 58 q 295 37 351 37 q 409 37 447 63 z"},"_":{"x_min":0,"x_max":398,"ha":398,"o":"m 29 -55 q 29 -46 30 -39 q 31 -32 33 -32 l 364 -32 q 366 -32 368 -40 q 369 -48 369 -57 q 369 -66 368 -74 q 366 -81 364 -81 l 34 -81 q 32 -81 30 -73 q 29 -65 29 -55 z"},"v":{"x_min":0,"x_max":440,"ha":440,"o":"m 454 374 q 425 374 402 352 q 380 330 360 284 l 237 0 q 236 -5 226 -5 q 218 -5 215 0 l 62 303 q 41 347 25 360 q 9 374 -14 374 q -17 374 -17 380 q -17 386 -14 386 q 4 386 16 385 l 83 384 l 160 385 q 177 386 207 386 q 210 386 210 380 q 210 374 207 374 q 149 374 149 351 q 149 345 154 335 l 266 125 l 332 285 q 340 306 340 321 q 340 346 323 360 q 306 374 276 374 q 274 374 274 380 q 274 386 276 386 q 303 386 317 385 l 377 384 l 417 385 q 429 386 454 386 q 456 386 456 380 q 456 374 454 374 z"},"O":{"x_min":0,"x_max":766,"ha":766,"o":"m 49 312 q 49 415 101 488 q 153 562 234 599 q 316 636 401 636 q 496 636 568 592 q 640 547 678 474 q 717 401 717 319 q 717 228 669 152 q 621 76 540 32 q 460 -12 366 -12 q 273 -12 200 32 q 128 75 88 150 q 49 224 49 312 z m 594 290 q 594 382 566 454 q 538 527 485 568 q 432 609 361 609 q 270 609 221 540 q 172 472 172 349 q 172 252 202 176 q 231 99 282 56 q 334 13 399 13 q 455 13 500 46 q 544 78 569 140 q 594 203 594 290 z"},"(":{"x_min":0,"x_max":309,"ha":309,"o":"m 274 725 q 276 726 278 724 q 280 721 278 719 q 215 648 186 545 q 156 442 156 304 q 156 166 186 63 q 215 -40 278 -111 q 280 -112 278 -115 q 276 -118 274 -117 q 165 -63 104 50 q 44 162 44 304 q 44 446 104 559 q 165 672 274 725 z"},"C":{"x_min":0,"x_max":669,"ha":669,"o":"m 588 609 q 597 606 600 602 q 602 597 604 586 l 616 447 q 616 444 611 443 q 606 442 605 446 q 571 525 514 568 q 457 611 382 611 q 283 611 229 538 q 175 465 175 342 q 175 250 204 174 q 234 98 288 54 q 341 9 409 9 q 473 9 524 52 q 574 94 614 181 q 615 185 620 184 q 626 183 626 180 l 611 44 q 609 32 606 28 q 604 25 595 21 q 506 -12 412 -12 q 290 -12 208 36 q 126 85 88 160 q 49 234 49 315 q 49 410 100 483 q 152 556 238 596 q 323 636 421 636 q 465 636 513 628 q 561 621 588 609 z"},"W":{"x_min":0,"x_max":904,"ha":904,"o":"m 910 613 q 872 613 837 582 q 802 550 787 495 l 649 1 q 649 -3 638 -3 q 628 -3 627 1 l 433 457 l 288 1 q 288 -3 277 -3 q 266 -3 265 1 l 81 542 q 66 585 50 599 q 34 613 5 613 q 2 613 2 619 q 2 625 5 625 q 20 625 26 624 q 46 622 78 622 q 149 622 209 624 q 226 625 249 625 q 252 625 252 619 q 252 613 249 613 q 195 613 195 569 q 195 551 204 524 l 318 185 l 458 625 q 461 628 470 628 q 480 628 481 625 l 671 181 l 754 488 q 763 520 763 543 q 763 613 685 613 q 683 613 683 619 q 683 625 685 625 l 741 624 q 791 622 821 622 q 841 622 867 624 l 910 625 q 912 625 912 619 q 912 613 910 613 z"},"A":{"x_min":0,"x_max":716,"ha":716,"o":"m 717 0 q 697 0 655 2 q 611 4 592 4 q 567 4 531 2 q 497 0 477 0 q 473 0 473 6 q 473 12 477 12 q 503 12 514 18 q 526 23 526 37 q 526 54 506 94 l 402 299 l 224 299 l 153 142 q 140 113 140 88 q 140 52 166 32 q 191 12 234 12 q 239 12 239 6 q 239 0 234 0 q 216 0 182 2 q 144 4 116 4 q 89 4 51 2 q 17 0 -4 0 q -8 0 -8 6 q -8 12 -4 12 q 24 12 43 24 q 62 35 81 64 q 100 94 126 152 l 343 629 q 345 632 352 632 q 360 632 361 629 l 611 137 q 646 66 669 39 q 692 12 717 12 q 722 12 722 6 q 722 0 717 0 z m 237 327 l 388 327 l 308 485 z"},"f":{"x_min":0,"x_max":305,"ha":305,"o":"m 437 667 q 437 644 422 631 q 406 618 386 618 q 362 618 351 629 q 340 640 331 661 q 322 682 312 692 q 302 703 280 703 q 234 703 208 639 q 181 575 181 439 l 181 378 q 212 379 291 387 q 294 387 296 380 q 298 372 298 363 q 298 353 294 344 q 291 334 288 335 q 240 347 181 350 l 181 81 q 181 50 187 36 q 193 22 212 17 q 230 12 270 12 q 274 12 274 6 q 274 0 270 0 l 201 1 q 178 2 133 2 l 72 1 q 56 0 27 0 q 23 0 23 6 q 23 12 27 12 q 53 12 66 17 q 78 22 82 36 q 87 51 87 81 l 87 306 q 87 337 74 346 q 61 356 23 356 q 20 356 20 365 q 20 374 23 374 q 58 374 71 384 q 84 393 85 418 q 90 581 147 654 q 204 726 319 726 q 375 726 406 710 q 437 695 437 667 z"},"Q":{"x_min":0,"x_max":766,"ha":766,"o":"m 749 -189 q 708 -201 668 -201 q 591 -201 509 -151 q 427 -101 368 -12 l 366 -12 q 273 -12 200 32 q 128 75 88 150 q 49 224 49 312 q 49 415 101 488 q 153 562 234 599 q 316 636 401 636 q 496 636 568 592 q 640 547 678 474 q 717 401 717 319 q 717 214 654 130 q 592 46 492 10 q 531 -74 592 -128 q 654 -181 710 -181 q 727 -181 745 -179 q 748 -178 750 -183 q 751 -188 749 -189 z m 399 13 q 455 13 500 46 q 544 78 569 140 q 594 203 594 290 q 594 382 566 454 q 538 527 485 568 q 432 609 361 609 q 270 609 221 540 q 172 472 172 349 q 172 252 202 176 q 231 99 282 56 q 334 13 399 13 z"},"w":{"x_min":0,"x_max":675,"ha":675,"o":"m 689 374 q 660 374 638 352 q 615 331 595 284 l 478 1 q 477 -3 468 -3 q 457 -3 456 1 l 325 253 l 226 1 q 225 -3 215 -3 q 205 -3 204 1 l 62 303 q 42 346 26 360 q 10 374 -14 374 q -17 374 -17 380 q -17 386 -14 386 q 4 386 16 385 l 83 384 l 154 385 q 169 386 195 386 q 198 386 198 380 q 198 374 195 374 q 145 374 145 352 q 145 344 150 335 l 251 134 l 350 386 q 351 390 360 390 q 371 390 372 386 l 506 129 l 567 285 q 575 306 575 321 q 575 346 558 360 q 541 374 511 374 q 509 374 509 380 q 509 386 511 386 q 538 386 552 385 l 612 384 l 652 385 q 664 386 689 386 q 691 386 691 380 q 691 374 689 374 z"},"-":{"x_min":0,"x_max":323,"ha":323,"o":"m 27 184 q 27 208 30 208 l 291 255 q 293 256 294 248 q 296 239 296 229 q 296 219 294 210 q 293 202 291 201 l 32 154 q 30 153 28 163 q 27 173 27 184 z"},"E":{"x_min":0,"x_max":552,"ha":552,"o":"m 500 161 q 503 161 506 160 q 508 158 508 157 q 498 79 498 15 q 498 7 495 4 q 492 0 483 0 l 41 0 q 38 0 38 6 q 38 12 41 12 q 73 12 88 17 q 102 22 107 36 q 112 51 112 81 l 112 544 q 112 574 107 588 q 102 602 87 608 q 72 613 41 613 q 38 613 38 619 q 38 625 41 625 l 465 625 q 475 625 475 616 l 477 483 q 477 481 472 480 q 466 479 465 482 q 449 540 411 568 q 373 596 311 596 l 281 596 q 251 596 237 583 q 223 570 223 543 l 223 339 l 306 339 q 364 339 395 359 q 426 379 426 415 q 426 418 432 418 q 437 418 437 415 l 436 325 l 437 277 q 439 243 439 223 q 439 221 433 221 q 427 221 427 223 q 427 264 396 288 q 364 311 305 311 l 223 311 l 223 85 q 223 56 234 42 q 245 28 269 28 l 302 28 q 380 28 427 60 q 474 92 496 159 q 496 161 500 161 z"},"s":{"x_min":0,"x_max":337,"ha":337,"o":"m 198 244 q 236 222 254 210 q 273 197 288 174 q 303 152 303 120 q 303 86 286 56 q 269 26 235 8 q 201 -11 154 -11 q 99 -11 50 16 q 44 22 44 28 l 42 127 q 42 130 48 130 q 53 131 54 129 q 70 79 107 44 q 144 9 182 9 q 203 9 216 22 q 228 35 228 60 q 228 97 207 118 q 186 140 145 163 q 110 182 92 194 q 74 206 60 228 q 46 250 46 282 q 46 341 88 368 q 130 396 191 396 q 214 396 232 393 q 251 390 274 381 q 283 378 283 370 q 283 345 282 331 l 281 281 q 281 278 275 278 q 269 278 269 281 q 269 300 253 322 q 237 345 212 361 q 186 377 159 377 q 118 377 118 338 q 118 309 138 288 q 159 267 198 244 z"},">":{"x_min":0,"x_max":407,"ha":407,"o":"m 376 189 q 376 175 371 172 l 37 25 q 34 24 32 30 q 30 36 30 45 q 30 54 32 63 q 34 72 37 73 l 309 189 l 37 305 q 34 307 32 316 q 30 324 30 333 q 30 343 32 350 q 34 356 37 354 l 371 206 q 376 204 376 189 z"},"l":{"x_min":0,"x_max":268,"ha":268,"o":"m 35 12 q 66 12 78 26 q 89 41 89 81 l 90 589 q 90 624 84 639 q 77 654 61 654 q 48 654 23 643 l 22 643 q 19 643 16 648 q 14 654 16 655 l 163 724 l 167 725 q 172 725 178 720 q 184 716 184 712 l 184 81 q 184 41 195 26 q 206 12 237 12 q 241 12 241 6 q 241 0 237 0 q 212 0 197 1 l 136 2 l 76 1 q 61 0 35 0 q 33 0 33 6 q 33 12 35 12 z"},"8":{"x_min":0,"x_max":495,"ha":495,"o":"m 461 165 q 461 113 433 72 q 405 32 356 10 q 307 -13 246 -13 q 181 -13 134 11 q 87 35 62 76 q 37 117 37 165 q 37 227 72 273 q 108 319 164 348 q 129 376 110 409 q 90 442 90 488 q 90 561 138 598 q 186 636 254 636 q 321 636 364 601 q 408 566 408 509 q 408 469 386 432 q 364 395 326 365 q 368 338 396 312 q 424 287 442 250 q 461 214 461 165 z m 179 540 q 179 489 208 454 q 237 420 294 385 q 311 436 311 497 q 311 557 294 586 q 277 615 240 615 q 208 615 194 594 q 179 574 179 540 z m 358 124 q 358 171 340 204 q 321 238 294 260 q 266 282 220 311 l 191 329 q 172 305 162 271 q 152 237 152 188 q 152 104 183 56 q 214 9 269 9 q 314 9 336 41 q 358 73 358 124 z"},"\\":{"x_min":0,"x_max":351,"ha":351,"o":"m 26 716 q 25 721 48 728 q 71 734 73 730 l 325 -152 q 326 -156 302 -162 q 279 -169 277 -165 z"},"e":{"x_min":0,"x_max":418,"ha":418,"o":"m 388 66 q 390 66 392 62 q 395 58 393 56 q 356 20 318 4 q 280 -12 235 -12 q 172 -12 126 14 q 80 41 56 86 q 32 130 32 181 q 32 239 62 288 q 92 338 144 366 q 196 395 260 395 q 322 395 355 368 q 388 342 388 296 q 388 267 377 267 l 316 267 l 136 265 q 133 246 133 223 q 133 137 174 87 q 214 37 285 37 q 310 37 337 44 q 364 51 386 65 z m 139 285 l 281 288 q 278 375 223 375 q 193 375 171 351 q 149 327 139 285 z"},"b":{"x_min":0,"x_max":516,"ha":516,"o":"m 484 213 q 484 141 454 90 q 423 39 374 13 q 324 -13 268 -13 q 230 -13 194 -1 q 157 11 127 34 l 36 -7 l 34 -7 q 30 -7 29 -3 q 28 1 32 2 q 56 16 68 40 q 81 65 81 103 l 81 589 q 81 624 74 639 q 68 654 51 654 q 38 654 14 643 l 13 643 q 9 643 7 648 q 5 654 7 655 l 153 724 l 158 725 q 163 725 168 720 q 174 716 174 712 l 174 332 q 207 363 241 381 q 275 399 318 399 q 363 399 401 378 q 439 357 462 315 q 484 273 484 213 z m 381 174 q 381 261 352 304 q 323 346 271 346 q 224 346 174 312 l 174 165 q 174 110 193 74 q 212 39 239 23 q 266 7 292 7 q 335 7 358 51 q 381 95 381 174 z"},"%":{"x_min":0,"x_max":574,"ha":574,"o":"m 18 433 q 18 486 56 523 q 93 560 150 560 q 207 560 244 522 q 280 485 280 430 q 280 376 243 340 q 206 303 150 303 q 93 303 56 340 q 18 378 18 433 z m 80 13 l 450 557 q 453 560 468 548 q 483 537 481 535 l 110 -8 q 108 -11 93 0 q 78 10 80 13 z m 198 423 q 198 483 184 514 q 170 544 144 544 q 118 544 108 516 q 99 487 99 436 q 99 319 157 319 q 182 319 190 346 q 198 372 198 423 z m 295 125 q 295 178 332 216 q 370 253 427 253 q 484 253 520 215 q 557 177 557 123 q 557 69 520 32 q 484 -5 427 -5 q 370 -5 332 32 q 295 70 295 125 z m 475 116 q 475 175 461 206 q 447 236 421 236 q 396 236 386 208 q 377 179 377 129 q 377 74 390 43 q 402 12 434 12 q 459 12 467 38 q 475 64 475 116 z"},"m":{"x_min":0,"x_max":777,"ha":777,"o":"m 759 0 q 733 0 718 1 l 658 2 l 600 1 q 584 0 558 0 q 555 0 555 6 q 555 12 558 12 q 589 12 600 26 q 612 41 612 81 l 612 225 q 612 279 594 305 q 575 331 537 331 q 511 331 486 320 q 461 309 443 290 l 443 284 l 443 81 q 443 41 454 26 q 466 12 497 12 q 501 12 501 6 q 501 0 497 0 q 471 0 456 1 l 396 2 l 338 1 q 322 0 296 0 q 293 0 293 6 q 293 12 296 12 q 327 12 338 26 q 350 41 350 81 l 350 225 q 350 279 332 305 q 313 331 275 331 q 251 331 228 322 q 204 312 186 295 l 186 81 q 186 41 198 26 q 209 12 240 12 q 243 12 243 6 q 243 0 240 0 q 214 0 199 1 l 139 2 l 80 1 q 65 0 39 0 q 36 0 36 6 q 36 12 39 12 q 70 12 81 26 q 92 41 92 81 l 92 269 q 92 300 84 314 q 77 329 61 329 q 44 329 13 315 l 11 315 q 8 315 6 320 q 5 325 7 326 l 146 394 q 152 396 153 396 q 164 396 174 374 q 184 353 186 317 q 254 398 332 398 q 379 398 407 375 q 435 352 441 309 q 510 398 594 398 q 648 398 676 367 q 705 336 705 273 l 705 81 q 705 41 716 26 q 728 12 759 12 q 763 12 763 6 q 763 0 759 0 z"},"#":{"x_min":0,"x_max":526,"ha":526,"o":"m 468 297 q 468 288 466 280 q 465 273 463 273 l 400 273 l 373 122 l 428 122 q 430 122 432 114 q 433 107 433 98 q 433 89 432 82 q 430 74 428 74 l 365 74 l 337 -83 q 337 -87 311 -83 q 285 -79 287 -75 l 313 74 l 178 74 l 150 -83 q 150 -87 124 -83 q 97 -79 99 -75 l 125 74 l 63 74 q 61 74 60 82 q 58 90 58 100 q 58 108 60 115 q 61 122 62 122 l 134 122 l 161 273 l 98 273 q 96 273 94 281 q 93 289 93 298 q 93 306 94 313 q 96 320 97 320 l 169 320 l 198 482 q 198 487 224 481 q 249 475 248 471 l 221 320 l 356 320 l 385 482 q 385 487 410 481 q 436 475 435 471 l 408 320 l 463 320 q 465 320 466 312 q 468 305 468 297 z m 322 122 l 348 273 l 213 273 l 186 122 z"},",":{"x_min":0,"x_max":222,"ha":222,"o":"m 175 2 q 175 -43 155 -82 q 135 -120 95 -159 q 94 -160 92 -160 q 89 -160 87 -157 q 85 -154 87 -152 q 136 -102 136 -34 q 136 -6 126 7 q 117 -8 89 -8 q 65 -8 50 8 q 36 23 36 48 q 36 75 54 90 q 71 106 101 106 q 136 106 156 79 q 175 52 175 2 z"},"n":{"x_min":0,"x_max":526,"ha":526,"o":"m 509 0 q 483 0 468 1 l 408 2 l 350 1 q 334 0 308 0 q 305 0 305 6 q 305 12 308 12 q 339 12 350 26 q 361 41 361 81 l 361 225 q 361 279 342 305 q 322 331 280 331 q 256 331 230 321 q 205 311 186 294 l 186 81 q 186 41 198 26 q 209 12 240 12 q 243 12 243 6 q 243 0 240 0 q 214 0 199 1 l 139 2 l 80 1 q 65 0 39 0 q 36 0 36 6 q 36 12 39 12 q 70 12 81 26 q 92 41 92 81 l 92 269 q 92 300 84 314 q 77 329 61 329 q 44 329 13 315 l 11 315 q 8 315 6 320 q 5 325 7 326 l 146 394 q 152 396 153 396 q 164 396 174 374 q 184 353 186 316 q 255 398 338 398 q 392 398 424 364 q 455 329 455 273 l 455 81 q 455 41 466 26 q 478 12 509 12 q 512 12 512 6 q 512 0 509 0 z"},"h":{"x_min":0,"x_max":509,"ha":509,"o":"m 491 0 q 465 0 449 1 l 391 2 l 331 1 q 316 0 290 0 q 288 0 288 6 q 288 12 290 12 q 321 12 332 26 q 344 41 344 81 l 344 225 q 344 279 324 305 q 304 331 262 331 q 238 331 212 321 q 187 311 168 294 l 168 81 q 168 41 180 26 q 191 12 222 12 q 226 12 226 6 q 226 0 222 0 q 196 0 180 1 l 122 2 l 62 1 q 47 0 21 0 q 19 0 19 6 q 19 12 21 12 q 52 12 64 26 q 75 41 75 81 l 75 589 q 75 624 68 639 q 62 654 46 654 q 32 654 8 643 l 7 643 q 4 643 2 648 q -1 654 1 655 l 147 724 l 152 725 q 157 725 162 720 q 168 716 168 712 l 168 316 q 239 398 320 398 q 374 398 406 364 q 437 329 437 273 l 437 81 q 437 41 448 26 q 460 12 491 12 q 495 12 495 6 q 495 0 491 0 z"},"z":{"x_min":0,"x_max":405,"ha":405,"o":"m 256 364 q 260 371 251 371 q 169 371 115 344 q 61 318 43 265 q 43 264 39 264 q 31 264 32 268 l 74 425 q 74 426 78 426 q 86 426 85 422 q 83 414 83 410 q 83 396 95 391 q 107 386 135 386 l 365 386 q 369 386 372 382 q 375 378 373 374 l 145 25 q 142 18 150 18 q 248 18 301 46 q 354 74 367 132 q 368 135 374 135 q 379 135 379 132 l 377 11 q 377 7 374 4 q 371 0 367 0 l 40 0 q 36 0 34 4 q 31 8 33 12 z"},"B":{"x_min":0,"x_max":595,"ha":595,"o":"m 543 181 q 543 129 513 87 q 483 45 430 20 q 377 -4 312 -4 q 284 -4 248 -1 q 234 0 214 1 q 193 2 168 2 l 95 1 q 75 0 41 0 q 38 0 38 6 q 38 12 41 12 q 70 12 85 18 q 100 23 106 38 q 113 52 113 81 l 113 544 q 113 586 99 600 q 85 613 42 613 q 40 613 40 619 q 40 625 42 625 l 95 624 q 141 622 168 622 q 196 622 226 625 q 236 626 256 627 q 276 628 291 628 q 382 628 432 595 q 482 562 482 499 q 482 451 450 412 q 419 373 360 351 q 444 341 494 295 q 543 249 543 181 z m 225 542 l 225 352 l 265 351 q 317 351 345 390 q 373 429 373 490 q 373 547 348 576 q 323 606 276 606 q 247 606 236 592 q 225 579 225 542 z m 426 157 q 426 234 389 279 q 352 324 277 324 q 248 324 225 322 l 225 81 q 225 48 238 34 q 251 21 295 21 q 426 21 426 157 z"},"K":{"x_min":0,"x_max":655,"ha":655,"o":"m 664 0 l 552 0 q 536 0 525 -1 q 514 -2 507 -2 q 491 -2 480 6 q 468 13 452 33 q 435 53 393 110 q 388 117 382 126 q 375 134 367 145 l 236 321 l 214 299 l 214 81 q 214 50 219 36 q 224 22 238 17 q 253 12 285 12 q 289 12 289 6 q 289 0 285 0 q 252 0 233 1 l 158 2 l 84 1 q 64 0 30 0 q 28 0 28 6 q 28 12 30 12 q 62 12 77 17 q 92 22 98 36 q 103 51 103 81 l 103 544 q 103 574 98 588 q 92 602 78 608 q 63 613 32 613 q 29 613 29 619 q 29 625 32 625 l 85 624 q 131 622 158 622 q 188 622 234 624 l 285 625 q 288 625 288 619 q 288 613 285 613 q 254 613 240 607 q 225 601 220 586 q 214 572 214 542 l 214 330 l 402 522 q 431 551 431 575 q 431 593 415 603 q 399 613 370 613 q 367 613 367 619 q 367 625 370 625 l 417 624 q 461 622 499 622 q 540 622 584 624 l 629 625 q 632 625 632 619 q 632 613 629 613 q 583 613 528 586 q 473 560 428 516 l 315 401 l 463 201 q 528 108 560 70 q 593 31 613 22 q 633 12 664 12 q 667 12 667 6 q 667 0 664 0 z"},"R":{"x_min":0,"x_max":698,"ha":698,"o":"m 708 0 l 530 0 q 508 0 448 82 q 388 165 303 313 q 295 312 280 312 q 241 312 225 313 l 225 81 q 225 50 230 36 q 235 22 250 17 q 264 12 296 12 q 298 12 298 6 q 298 0 296 0 q 263 0 244 1 l 168 2 l 95 1 q 75 0 41 0 q 38 0 38 6 q 38 12 41 12 q 73 12 88 17 q 102 22 108 36 q 113 51 113 81 l 113 544 q 113 574 108 588 q 103 602 88 608 q 73 613 42 613 q 40 613 40 619 q 40 625 42 625 l 95 624 q 141 622 168 622 q 197 622 232 625 q 243 626 260 627 q 278 628 302 628 q 394 628 444 594 q 495 561 495 501 q 495 455 467 413 q 439 371 394 345 q 474 219 528 148 q 583 77 626 44 q 668 12 708 12 q 710 12 710 6 q 710 0 708 0 z m 283 338 q 319 338 340 349 q 361 360 370 387 q 380 414 380 463 q 380 545 356 576 q 332 607 287 607 q 253 607 239 592 q 225 577 225 542 l 225 342 q 249 338 283 338 z"},"T":{"x_min":0,"x_max":643,"ha":643,"o":"m 51 447 q 50 444 45 444 q 40 445 40 448 q 44 488 49 552 q 54 615 54 647 q 54 652 60 652 q 65 652 65 647 q 65 625 122 625 q 208 622 323 622 q 382 622 448 624 l 516 625 q 554 625 572 630 q 589 635 594 650 q 595 654 600 654 q 606 654 606 650 q 603 620 600 554 q 596 488 596 448 q 596 445 591 445 q 586 445 585 448 q 570 525 529 564 q 488 602 428 602 q 399 602 390 590 q 380 577 380 542 l 380 81 q 380 50 386 36 q 392 22 409 17 q 426 12 463 12 q 466 12 466 6 q 466 0 463 0 q 427 0 406 1 l 323 2 l 242 1 q 221 0 184 0 q 181 0 181 6 q 181 12 184 12 q 220 12 238 17 q 255 22 262 36 q 268 51 268 81 l 268 544 q 268 578 259 590 q 250 602 222 602 q 103 602 51 447 z"},"P":{"x_min":0,"x_max":553,"ha":553,"o":"m 312 12 q 315 12 315 6 q 315 0 312 0 q 271 0 248 1 l 161 2 l 88 1 q 68 0 34 0 q 31 0 31 6 q 31 12 34 12 q 66 12 80 17 q 95 22 100 36 q 105 51 105 81 l 105 544 q 105 574 100 588 q 95 602 80 608 q 65 613 34 613 q 31 613 31 619 q 31 625 34 625 l 87 624 q 133 622 160 622 q 184 622 217 625 q 230 626 250 627 q 270 628 296 628 q 398 628 457 586 q 516 543 516 454 q 516 392 484 349 q 452 306 402 284 q 351 262 298 262 q 271 262 251 267 q 249 267 249 272 q 249 275 250 278 q 252 281 254 280 q 269 276 288 276 q 334 276 364 319 q 395 362 395 441 q 395 520 362 563 q 328 606 264 606 q 236 606 226 593 q 216 580 216 542 l 216 85 q 216 53 223 38 q 230 24 250 18 q 269 12 312 12 z"},"|":{"x_min":0,"x_max":168,"ha":168,"o":"m 62 731 q 62 738 86 738 q 109 738 109 731 l 109 -154 q 109 -158 102 -160 q 95 -162 86 -162 q 76 -162 69 -160 q 62 -158 62 -154 z"},"t":{"x_min":0,"x_max":336,"ha":336,"o":"m 324 70 q 328 70 330 66 q 333 62 330 60 q 293 23 258 6 q 223 -12 184 -12 q 140 -12 109 9 q 78 30 78 80 l 78 302 q 78 333 67 345 q 56 357 27 357 q 26 357 24 360 q 23 363 23 366 q 23 370 24 372 q 25 375 27 375 q 78 377 110 397 q 141 417 158 458 q 160 462 166 462 q 173 462 173 458 l 173 378 q 231 379 303 387 q 305 387 308 380 q 310 372 310 363 q 310 353 306 344 q 303 334 299 335 q 234 349 173 350 l 173 113 q 173 75 192 57 q 212 39 244 39 q 284 39 322 69 z"},"M":{"x_min":0,"x_max":857,"ha":857,"o":"m 833 0 q 799 0 779 1 l 705 2 l 630 1 q 611 0 578 0 q 575 0 575 6 q 575 12 578 12 q 620 12 635 22 q 650 32 650 64 l 649 81 l 628 490 l 422 7 q 420 3 414 3 q 408 3 406 7 l 153 488 l 145 127 q 144 73 166 42 q 189 12 230 12 q 233 12 233 6 q 233 0 230 0 q 203 0 188 1 l 133 2 l 70 1 q 54 0 27 0 q 24 0 24 6 q 24 12 27 12 q 68 12 92 43 q 116 74 117 127 l 126 541 l 125 542 q 105 579 84 596 q 62 613 34 613 q 31 613 31 619 q 31 625 34 625 l 81 624 q 95 623 117 623 l 170 624 q 179 625 193 625 q 206 625 213 616 q 220 607 239 573 l 457 164 l 647 600 q 653 614 660 620 q 666 625 677 625 q 686 625 698 624 q 709 623 724 623 l 783 624 q 797 625 823 625 q 826 625 826 619 q 826 613 823 613 q 776 613 755 594 q 734 575 736 535 l 760 81 q 762 50 768 36 q 773 22 788 17 q 802 12 833 12 q 835 12 835 6 q 835 0 833 0 z"},"g":{"x_min":0,"x_max":469,"ha":469,"o":"m 407 399 q 409 399 412 398 q 414 396 414 394 l 414 -70 q 414 -164 358 -222 q 302 -281 201 -281 q 135 -281 93 -262 q 51 -242 51 -205 q 51 -179 66 -166 q 81 -154 102 -154 q 130 -154 144 -167 q 157 -180 170 -206 q 183 -233 198 -246 q 212 -260 243 -260 q 278 -260 299 -224 q 320 -188 320 -94 l 320 52 q 287 22 254 4 q 222 -13 182 -13 q 141 -13 106 8 q 72 28 52 68 q 32 108 32 164 q 32 235 65 288 q 98 342 152 370 q 206 398 268 398 q 322 398 365 372 q 388 382 404 398 q 405 399 407 399 z m 320 72 l 320 288 q 320 327 298 352 q 277 377 242 377 q 192 377 164 327 q 135 277 135 198 q 135 123 160 82 q 186 40 233 40 q 273 40 320 72 z"},"j":{"x_min":0,"x_max":263,"ha":263,"o":"m 72 556 q 72 582 88 598 q 105 613 133 613 q 161 613 176 598 q 191 583 191 556 q 191 527 176 511 q 161 495 133 495 q 104 495 88 511 q 72 527 72 556 z m 188 360 q 186 320 186 262 l 186 -48 q 186 -116 170 -160 q 153 -203 114 -232 q 76 -261 8 -282 q 6 -283 4 -278 q 1 -272 4 -271 q 52 -250 72 -204 q 92 -158 92 -71 l 92 260 q 92 294 86 309 q 79 324 63 324 q 50 324 26 313 l 25 313 q 21 313 18 318 q 16 324 19 325 l 170 395 l 173 396 q 178 396 183 391 q 188 386 188 382 z"},"i":{"x_min":0,"x_max":263,"ha":263,"o":"m 74 556 q 74 582 90 598 q 107 613 135 613 q 163 613 178 598 q 193 583 193 556 q 193 527 178 511 q 163 495 135 495 q 106 495 90 511 q 74 527 74 556 z m 39 12 q 70 12 81 26 q 92 41 92 81 l 92 260 q 92 294 85 309 q 78 324 62 324 q 49 324 25 313 l 24 313 q 20 313 18 318 q 16 324 19 325 l 170 395 l 173 396 q 178 396 183 391 q 188 386 188 382 l 188 360 q 186 320 186 262 l 186 81 q 186 41 198 26 q 209 12 240 12 q 243 12 243 6 q 243 0 240 0 q 214 0 199 1 l 139 2 l 80 1 q 65 0 39 0 q 36 0 36 6 q 36 12 39 12 z"},"y":{"x_min":0,"x_max":499,"ha":499,"o":"m 436 382 l 436 -70 q 436 -166 382 -224 q 329 -281 222 -281 q 159 -281 115 -260 q 71 -240 71 -201 q 71 -180 85 -167 q 99 -154 123 -154 q 148 -154 162 -167 q 176 -180 192 -205 q 209 -233 224 -246 q 240 -260 269 -260 q 304 -260 324 -226 q 343 -191 343 -94 l 343 67 q 274 -12 193 -12 q 139 -12 108 22 q 76 57 76 113 l 76 260 q 76 293 69 309 q 62 325 46 325 q 34 325 20 318 l 19 318 q 15 318 14 324 q 12 329 14 330 l 149 394 l 153 395 q 158 395 164 390 q 170 386 170 382 l 170 161 q 170 107 190 81 q 209 55 251 55 q 274 55 299 64 q 324 74 343 90 l 343 260 q 343 325 312 325 q 301 325 287 318 l 286 318 q 282 318 280 324 q 278 329 281 330 l 415 394 l 420 395 q 425 395 430 390 q 436 386 436 382 z"},"@":{"x_min":0,"x_max":729,"ha":729,"o":"m 402 115 q 402 131 406 147 l 408 154 q 374 108 336 81 q 297 54 263 54 q 238 54 222 70 q 205 86 205 121 q 205 127 207 143 q 215 197 250 247 q 284 297 330 328 q 377 360 418 360 q 433 360 446 354 q 460 348 468 336 q 496 347 502 367 q 504 369 508 369 q 512 369 515 368 q 518 367 519 366 l 478 142 q 476 134 476 119 q 476 82 513 82 q 537 82 562 100 q 587 117 604 152 q 621 187 621 236 q 621 303 588 359 q 556 415 500 448 q 443 480 372 480 q 296 480 240 442 q 185 405 156 341 q 126 277 126 201 q 126 119 160 58 q 194 -4 256 -38 q 318 -71 401 -71 q 448 -71 488 -60 q 527 -49 568 -20 l 569 -20 q 572 -20 574 -24 q 577 -27 574 -28 q 522 -72 471 -89 q 420 -106 365 -106 q 281 -106 212 -72 q 144 -39 104 24 q 64 88 64 175 q 64 270 112 345 q 159 420 238 462 q 317 503 407 503 q 487 503 548 470 q 609 438 642 384 q 676 331 676 268 q 676 210 648 162 q 620 113 572 84 q 524 56 467 56 q 402 56 402 115 z m 430 275 q 432 289 432 295 q 432 314 426 326 q 419 337 407 337 q 372 337 340 294 q 308 251 296 194 q 291 172 291 155 q 291 139 296 128 q 302 118 313 118 q 332 118 356 142 q 381 165 402 202 q 423 239 430 275 z"},".":{"x_min":0,"x_max":207,"ha":207,"o":"m 44 50 q 44 76 60 92 q 77 108 105 108 q 133 108 148 92 q 164 77 164 50 q 164 21 148 5 q 133 -11 105 -11 q 77 -11 60 6 q 44 22 44 50 z"},"p":{"x_min":0,"x_max":513,"ha":513,"o":"m 175 -2 l 175 -194 q 175 -224 182 -238 q 188 -252 206 -258 q 225 -263 264 -263 q 267 -263 267 -269 q 267 -275 264 -275 q 227 -275 206 -274 l 127 -273 l 68 -274 q 53 -275 26 -275 q 23 -275 23 -269 q 23 -263 26 -263 q 50 -263 62 -258 q 73 -252 78 -238 q 82 -224 82 -194 l 82 269 q 82 301 75 315 q 68 329 50 329 q 34 329 4 315 l 2 315 q -1 315 -4 320 q -6 325 -4 326 l 138 395 q 140 396 143 396 q 153 396 162 379 q 170 362 173 333 q 246 399 323 399 q 365 399 402 377 q 438 355 460 313 q 482 271 482 215 q 482 135 449 84 q 416 32 366 10 q 315 -13 261 -13 q 212 -13 175 -2 z m 175 311 l 175 303 l 175 62 q 197 37 221 24 q 245 12 280 12 q 381 12 381 184 q 381 260 346 302 q 310 343 257 343 q 212 343 175 311 z"},"X":{"x_min":0,"x_max":647,"ha":647,"o":"m 644 0 q 615 0 599 1 l 539 2 l 457 1 q 438 0 404 0 q 401 0 401 6 q 401 12 404 12 q 437 12 437 29 q 437 38 428 51 l 291 263 l 205 140 q 166 85 166 51 q 166 12 218 12 q 220 12 220 6 q 220 0 218 0 q 185 0 168 1 l 94 2 l 47 1 q 34 0 5 0 q 2 0 2 6 q 2 12 5 12 q 36 12 81 45 q 126 78 175 146 l 277 284 l 117 533 q 90 576 65 594 q 40 613 12 613 q 9 613 9 619 q 9 625 12 625 l 55 624 q 83 622 97 622 q 132 622 184 624 l 241 625 q 243 625 243 619 q 243 613 241 613 q 207 613 207 596 q 207 588 216 573 l 348 370 l 428 484 q 467 540 467 574 q 467 613 415 613 q 413 613 413 619 q 413 625 415 625 l 465 624 q 505 622 539 622 q 560 622 586 624 l 628 625 q 631 625 631 619 q 631 613 628 613 q 596 613 552 580 q 507 546 457 478 l 362 348 l 533 83 q 558 46 584 29 q 610 12 644 12 q 647 12 647 6 q 647 0 644 0 z"},"*":{"x_min":0,"x_max":448,"ha":448,"o":"m 200 657 q 198 668 238 678 q 277 689 304 689 q 316 689 315 685 l 236 529 q 235 526 230 526 q 226 526 226 529 z m 73 526 q 64 528 64 556 q 64 584 70 616 q 77 649 82 644 l 207 520 q 209 518 208 514 q 206 510 204 511 z m 250 504 q 248 504 246 508 q 245 512 248 513 l 361 578 q 370 582 388 558 q 405 533 418 504 q 431 476 425 477 z m 152 363 q 139 363 112 374 q 86 384 66 396 q 45 409 50 411 l 206 491 l 208 492 q 211 492 214 490 q 216 487 215 485 l 160 366 q 159 363 152 363 z m 232 481 l 232 482 q 232 484 236 486 q 240 489 241 488 l 337 399 q 344 393 326 368 q 308 344 285 324 q 262 303 261 309 z"},"Y":{"x_min":0,"x_max":619,"ha":619,"o":"m 625 613 q 594 613 549 574 q 504 536 469 478 l 365 304 l 365 81 q 365 50 370 36 q 375 22 390 17 q 404 12 436 12 q 439 12 439 6 q 439 0 436 0 q 403 0 384 1 l 309 2 l 235 1 q 215 0 181 0 q 179 0 179 6 q 179 12 181 12 q 213 12 228 17 q 243 22 248 36 q 254 51 254 81 l 254 283 l 108 510 q 71 568 46 590 q 22 613 5 613 q 2 613 2 619 q 2 625 5 625 l 36 624 q 58 622 67 622 q 102 622 168 624 l 234 625 q 236 625 236 619 q 236 613 234 613 q 217 613 208 605 q 198 597 198 584 q 198 568 212 546 l 349 330 l 441 487 q 468 532 468 564 q 468 588 454 600 q 439 613 412 613 q 409 613 409 619 q 409 625 412 625 l 465 624 q 511 622 547 622 q 564 622 588 624 l 625 625 q 627 625 627 619 q 627 613 625 613 z"},"c":{"x_min":0,"x_max":425,"ha":425,"o":"m 32 186 q 32 249 67 296 q 102 344 156 370 q 211 395 268 395 q 316 395 354 375 q 393 355 393 320 q 393 301 378 288 q 364 274 338 274 q 314 274 300 286 q 286 299 277 325 q 268 353 260 364 q 251 374 229 374 q 186 374 160 332 q 135 289 135 219 q 135 136 172 86 q 209 37 290 37 q 317 37 336 43 q 356 49 386 63 l 387 63 q 390 63 392 60 q 395 57 393 55 q 356 21 319 4 q 282 -12 234 -12 q 168 -12 122 16 q 77 45 54 90 q 32 136 32 186 z"},"!":{"x_min":0,"x_max":263,"ha":263,"o":"m 131 629 q 157 629 180 626 q 204 622 202 615 q 180 539 170 449 q 159 359 148 221 q 148 211 146 189 q 146 187 140 186 q 135 184 129 184 q 123 184 118 186 q 112 187 112 189 q 103 337 93 434 q 83 532 61 615 q 59 622 82 626 q 105 629 131 629 z m 64 50 q 64 76 80 92 q 97 108 125 108 q 153 108 168 92 q 184 77 184 50 q 184 21 168 5 q 153 -11 125 -11 q 97 -11 80 6 q 64 22 64 50 z"},"/":{"x_min":0,"x_max":351,"ha":351,"o":"m 26 -152 l 278 730 q 280 734 303 728 q 326 721 325 716 l 74 -165 q 72 -169 48 -162 q 25 -156 26 -152 z"},"[":{"x_min":0,"x_max":274,"ha":274,"o":"m 67 715 q 67 722 68 724 q 70 725 76 725 l 236 725 q 239 725 239 719 q 239 713 236 713 q 205 713 190 707 q 175 701 170 686 q 165 672 165 642 l 165 -34 q 165 -64 170 -78 q 175 -93 190 -99 q 205 -105 236 -105 q 239 -105 239 -111 q 239 -117 236 -117 l 76 -117 q 70 -117 68 -115 q 67 -113 67 -106 z"},"6":{"x_min":0,"x_max":495,"ha":495,"o":"m 457 178 q 457 122 431 78 q 405 35 359 11 q 313 -13 256 -13 q 162 -13 108 52 q 55 117 55 229 q 55 326 94 418 q 134 510 208 570 q 283 631 382 636 q 386 636 387 632 q 388 627 385 626 q 281 592 224 484 q 168 376 168 236 q 168 135 197 72 q 226 9 275 9 q 344 9 344 151 q 344 229 324 267 q 303 305 261 305 q 231 305 211 294 l 209 293 q 205 293 202 297 q 200 301 202 303 q 241 340 302 340 q 372 340 414 295 q 457 250 457 178 z"},"r":{"x_min":0,"x_max":379,"ha":379,"o":"m 365 340 q 365 319 352 306 q 339 292 318 292 q 303 292 294 298 q 284 304 274 316 q 265 326 258 330 q 252 335 243 335 q 233 335 222 328 q 210 320 186 296 l 186 81 q 186 41 205 26 q 224 12 275 12 q 279 12 279 6 q 279 0 275 0 q 240 0 220 1 l 139 2 l 80 1 q 65 0 39 0 q 36 0 36 6 q 36 12 39 12 q 70 12 81 26 q 92 41 92 81 l 92 269 q 92 300 84 314 q 77 329 61 329 q 44 329 13 315 l 11 315 q 8 315 6 320 q 5 325 7 326 l 146 394 q 152 396 153 396 q 164 396 174 376 q 183 355 185 320 q 226 362 252 379 q 279 396 299 396 q 322 396 344 380 q 365 363 365 340 z"},"2":{"x_min":0,"x_max":443,"ha":443,"o":"m 26 28 q 126 153 172 216 q 217 280 240 334 q 264 389 264 447 q 264 572 161 572 q 114 572 84 548 q 53 525 44 484 q 44 483 40 483 q 32 483 33 487 q 44 555 93 596 q 142 636 216 636 q 291 636 332 594 q 373 551 373 481 q 373 428 350 378 q 327 329 294 289 q 261 249 209 195 q 149 133 127 103 q 123 96 132 96 q 239 96 288 101 q 338 106 356 120 q 375 135 375 167 q 375 170 381 170 q 387 170 387 167 l 387 11 q 387 7 384 4 q 382 0 378 0 l 39 0 q 34 0 28 12 q 22 24 26 28 z"},"{":{"x_min":0,"x_max":289,"ha":289,"o":"m 32 311 q 67 317 78 376 q 90 434 90 529 q 90 615 103 656 q 116 696 148 710 q 181 725 250 725 q 254 725 254 719 q 254 713 250 713 q 224 713 210 686 q 196 658 195 607 q 193 485 186 435 q 180 385 157 356 q 134 328 78 305 q 134 281 157 252 q 180 222 186 172 q 193 122 195 1 q 196 -50 210 -78 q 224 -105 250 -105 q 254 -105 254 -111 q 254 -117 250 -117 q 181 -117 148 -102 q 115 -88 102 -47 q 90 -6 90 80 q 90 176 78 234 q 67 292 32 298 q 29 298 29 304 q 29 311 32 311 z"},"9":{"x_min":0,"x_max":489,"ha":489,"o":"m 37 457 q 37 509 63 550 q 89 591 135 614 q 181 636 239 636 q 333 636 386 572 q 440 507 440 394 q 440 297 399 206 q 358 114 281 54 q 204 -7 101 -13 q 97 -13 96 -8 q 95 -4 98 -2 q 172 20 224 78 q 275 136 300 216 q 326 297 326 387 q 326 488 297 551 q 268 614 220 614 q 183 614 167 578 q 151 541 151 473 q 151 395 172 356 q 192 318 234 318 q 265 318 284 330 l 286 330 q 289 330 292 326 q 294 323 292 320 q 255 283 193 283 q 123 283 80 332 q 37 380 37 457 z"}," ":{"x_min":0,"x_max":234,"ha":234,"o":""},"I":{"x_min":0,"x_max":342,"ha":342,"o":"m 298 12 q 301 12 301 6 q 301 0 298 0 q 265 0 246 1 l 170 2 l 96 1 q 76 0 42 0 q 40 0 40 6 q 40 12 42 12 q 74 12 89 17 q 104 22 110 36 q 115 51 115 81 l 115 544 q 115 574 110 588 q 104 602 89 608 q 74 613 42 613 q 40 613 40 619 q 40 625 42 625 l 96 624 q 142 622 170 622 q 201 622 247 624 l 298 625 q 301 625 301 619 q 301 613 298 613 q 267 613 252 607 q 237 601 232 586 q 227 572 227 542 l 227 81 q 227 50 232 36 q 237 22 252 17 q 266 12 298 12 z"},"H":{"x_min":0,"x_max":764,"ha":764,"o":"m 732 0 q 697 0 676 1 l 599 2 l 509 1 q 491 0 460 0 q 457 0 457 6 q 457 12 460 12 q 497 12 514 17 q 531 22 537 36 q 543 50 543 81 l 543 311 l 220 311 l 220 81 q 220 51 226 36 q 232 22 249 17 q 266 12 303 12 q 305 12 305 6 q 305 0 303 0 q 268 0 247 1 l 160 2 l 85 1 q 65 0 30 0 q 28 0 28 6 q 28 12 30 12 q 65 12 81 17 q 97 22 103 36 q 109 51 109 81 l 109 544 q 109 574 103 588 q 97 602 82 608 q 66 613 32 613 q 29 613 29 619 q 29 625 32 625 l 86 624 q 132 622 160 622 q 198 622 248 624 l 303 625 q 305 625 305 619 q 305 613 303 613 q 267 613 250 607 q 233 601 226 586 q 220 572 220 542 l 220 339 l 543 339 l 543 542 q 543 572 537 586 q 531 601 514 607 q 497 613 460 613 q 457 613 457 619 q 457 625 460 625 l 509 624 q 559 622 599 622 q 626 622 676 624 l 732 625 q 735 625 735 619 q 735 613 732 613 q 698 613 682 608 q 665 602 660 588 q 654 574 654 544 l 654 81 q 654 51 660 36 q 665 22 681 17 q 697 12 732 12 q 735 12 735 6 q 735 0 732 0 z"},"4":{"x_min":0,"x_max":474,"ha":474,"o":"m 418 0 q 388 0 371 1 l 304 2 l 224 1 q 204 0 167 0 q 165 0 165 6 q 165 12 167 12 q 208 12 224 16 q 241 21 247 34 q 253 48 253 81 l 253 182 q 127 184 22 184 q 17 184 14 188 q 12 191 15 195 l 343 630 q 345 632 349 632 q 352 632 355 630 q 358 629 358 626 l 358 217 l 418 219 q 422 219 422 198 q 422 177 418 177 l 358 180 l 358 81 q 358 50 362 36 q 367 22 379 17 q 391 12 418 12 q 420 12 420 6 q 420 0 418 0 z m 253 214 l 253 462 l 75 220 q 69 213 80 213 q 204 213 253 214 z"},"~":{"x_min":0,"x_max":443,"ha":443,"o":"m 389 250 l 391 251 q 393 251 395 248 q 397 245 396 243 q 357 181 333 160 q 309 139 280 139 q 263 139 248 143 q 234 147 208 156 q 162 175 129 175 q 105 175 92 168 q 79 161 68 150 q 58 140 55 137 l 54 137 q 52 137 50 140 q 47 142 48 144 q 111 248 171 248 q 184 248 200 243 q 216 238 232 232 q 257 222 276 217 q 295 212 315 212 q 342 212 358 222 q 373 232 389 250 z"},"D":{"x_min":0,"x_max":705,"ha":705,"o":"m 250 -1 q 234 0 210 1 q 187 2 158 2 l 84 1 q 64 0 30 0 q 28 0 28 6 q 28 12 30 12 q 62 12 77 17 q 92 22 98 36 q 103 51 103 81 l 103 544 q 103 574 98 588 q 92 602 78 608 q 63 613 32 613 q 29 613 29 619 q 29 625 32 625 l 85 624 q 131 622 158 622 q 199 622 242 625 q 294 627 312 627 q 413 627 492 587 q 570 547 613 478 q 656 409 656 323 q 656 226 612 152 q 567 77 492 36 q 416 -4 326 -4 q 294 -4 250 -1 z m 533 301 q 533 386 507 456 q 481 525 433 565 q 385 605 322 605 q 260 605 237 593 q 214 581 214 542 l 214 92 q 214 52 235 36 q 256 19 316 19 q 380 19 429 52 q 478 84 506 148 q 533 212 533 301 z"},"^":{"x_min":0,"x_max":392,"ha":392,"o":"m 333 379 q 333 377 329 375 q 325 373 324 375 l 196 509 l 68 375 q 67 374 65 374 q 62 374 60 376 q 57 378 58 380 l 185 629 q 186 634 196 634 q 206 634 207 629 l 333 380 z"},"0":{"x_min":0,"x_max":501,"ha":501,"o":"m 37 313 q 37 466 94 552 q 151 637 253 637 q 352 637 408 550 q 463 464 463 310 q 463 158 407 72 q 351 -13 251 -13 q 151 -13 94 74 q 37 160 37 313 z m 345 298 q 345 413 334 482 q 324 551 302 584 q 279 616 242 616 q 195 616 174 548 q 154 479 154 320 q 154 153 180 80 q 205 8 263 8 q 307 8 326 75 q 345 142 345 298 z"},"F":{"x_min":0,"x_max":522,"ha":522,"o":"m 477 483 q 477 481 472 480 q 466 479 465 482 q 449 540 411 568 q 373 596 311 596 l 281 596 q 251 596 237 583 q 223 570 223 543 l 223 327 l 295 327 q 353 327 384 348 q 414 368 414 404 q 414 406 420 406 q 426 406 426 404 l 425 313 q 425 281 426 265 l 427 212 q 427 209 421 209 q 415 209 415 212 q 415 252 384 276 q 352 299 294 299 l 223 299 l 223 85 q 223 54 231 39 q 239 24 261 18 q 283 12 330 12 q 332 12 332 6 q 332 0 330 0 q 289 0 266 1 l 164 2 l 89 1 q 69 0 34 0 q 31 0 31 6 q 31 12 34 12 q 69 12 85 17 q 101 22 106 36 q 112 51 112 81 l 112 544 q 112 574 107 588 q 102 602 87 608 q 72 613 41 613 q 38 613 38 619 q 38 625 41 625 l 465 625 q 475 625 475 616 z"},"`":{"x_min":0,"x_max":213,"ha":213,"o":"m 37 731 q 59 731 90 726 q 121 720 122 716 l 154 476 q 154 474 150 472 q 145 471 144 474 l 23 727 q 22 731 37 731 z"},"k":{"x_min":0,"x_max":491,"ha":491,"o":"m 497 0 q 471 0 456 1 l 396 2 l 319 1 q 302 0 273 0 q 270 0 270 6 q 270 12 273 12 q 309 12 309 33 q 309 44 301 53 l 187 199 l 168 182 l 168 81 q 168 41 180 26 q 191 12 222 12 q 226 12 226 6 q 226 0 222 0 q 196 0 180 1 l 122 2 l 62 1 q 47 0 21 0 q 19 0 19 6 q 19 12 21 12 q 52 12 64 26 q 75 41 75 81 l 75 589 q 75 624 68 639 q 62 654 46 654 q 32 654 8 643 l 7 643 q 4 643 2 648 q -1 654 1 655 l 147 724 l 152 725 q 157 725 162 720 q 168 716 168 712 l 168 205 l 261 295 q 287 319 287 344 q 287 357 277 366 q 267 374 249 374 q 247 374 247 380 q 247 386 249 386 q 278 386 294 385 l 373 384 l 446 385 q 460 386 485 386 q 488 386 488 380 q 488 374 485 374 q 442 374 386 352 q 331 331 287 290 l 251 257 l 388 81 q 417 45 444 28 q 470 12 497 12 q 500 12 500 6 q 500 0 497 0 z"},"u":{"x_min":0,"x_max":505,"ha":505,"o":"m 499 65 q 502 65 504 60 q 507 55 504 54 l 366 -13 q 364 -14 361 -14 q 351 -14 344 8 q 336 29 335 66 q 269 -12 192 -12 q 137 -12 106 22 q 74 57 74 113 l 74 260 q 74 325 43 325 q 32 325 18 318 l 17 318 q 13 318 11 324 q 9 329 12 330 l 146 394 l 151 395 q 156 395 162 390 q 167 386 167 382 l 167 161 q 167 53 250 53 q 272 53 294 62 q 317 72 335 89 l 335 260 q 335 325 304 325 q 293 325 278 318 l 277 318 q 274 318 272 324 q 270 329 273 330 l 407 394 q 409 395 412 395 q 417 395 422 390 q 428 386 428 382 l 428 116 q 428 82 434 68 q 441 54 456 54 q 470 54 497 65 z"},"]":{"x_min":0,"x_max":274,"ha":274,"o":"m 198 -117 l 38 -117 q 35 -117 35 -111 q 35 -105 38 -105 q 69 -105 84 -99 q 99 -93 104 -78 q 109 -64 109 -34 l 109 642 q 109 672 104 686 q 99 701 84 707 q 69 713 38 713 q 35 713 35 719 q 35 725 38 725 l 198 725 q 204 725 206 724 q 207 722 207 715 l 207 -106 q 207 -113 206 -115 q 204 -117 198 -117 z"},"U":{"x_min":0,"x_max":758,"ha":758,"o":"m 726 0 l 637 1 l 566 0 q 554 0 550 3 q 547 6 547 19 l 547 87 q 494 36 441 12 q 388 -12 325 -12 q 260 -12 206 12 q 153 37 122 82 q 91 127 91 186 l 91 544 q 91 574 86 588 q 81 602 66 608 q 51 613 20 613 q 17 613 17 619 q 17 625 20 625 l 73 624 q 119 622 146 622 q 176 622 222 624 l 274 625 q 276 625 276 619 q 276 613 274 613 q 243 613 228 607 q 213 601 208 586 q 202 572 202 542 l 202 221 q 202 128 246 78 q 291 28 366 28 q 414 28 457 49 q 500 70 547 115 l 547 542 q 547 572 542 586 q 537 601 522 607 q 508 613 476 613 q 474 613 474 619 q 474 625 476 625 l 529 624 q 573 622 599 622 q 628 622 672 624 l 726 625 q 729 625 729 619 q 729 613 726 613 q 695 613 680 608 q 665 602 660 588 q 654 574 654 544 l 654 81 q 654 51 660 36 q 665 22 680 17 q 694 12 726 12 q 729 12 729 6 q 729 0 726 0 z"},"o":{"x_min":0,"x_max":489,"ha":489,"o":"m 32 198 q 32 263 65 308 q 98 354 149 376 q 200 399 254 399 q 316 399 362 370 q 408 341 432 294 q 457 246 457 192 q 457 132 427 86 q 397 39 346 13 q 296 -13 237 -13 q 175 -13 128 16 q 82 44 57 92 q 32 141 32 198 z m 347 157 q 347 227 329 277 q 311 327 282 352 q 253 378 220 378 q 140 378 140 235 q 140 168 157 116 q 174 65 203 36 q 232 8 267 8 q 306 8 326 46 q 347 85 347 157 z"},"N":{"x_min":0,"x_max":735,"ha":735,"o":"m 723 613 q 683 613 660 582 q 637 550 637 497 l 637 -15 q 637 -18 632 -19 q 628 -20 626 -18 l 157 516 l 157 127 q 157 74 179 43 q 201 12 240 12 q 242 12 242 6 q 242 0 240 0 q 212 0 197 1 l 143 2 l 81 1 q 64 0 32 0 q 29 0 29 6 q 29 12 32 12 q 76 12 102 43 q 127 74 127 127 l 127 550 q 94 586 70 600 q 47 613 22 613 q 20 613 20 619 q 20 625 22 625 l 64 624 q 77 623 102 623 l 178 624 q 192 625 212 625 q 220 625 224 621 q 228 617 238 604 q 255 581 262 573 l 608 174 l 608 497 q 608 551 586 582 q 564 613 525 613 q 523 613 523 619 q 523 625 525 625 l 568 624 q 600 622 622 622 q 642 622 678 624 l 723 625 q 725 625 725 619 q 725 613 723 613 z"},"+":{"x_min":0,"x_max":398,"ha":398,"o":"m 369 190 q 369 181 368 173 q 366 165 364 165 l 223 165 l 223 25 q 223 23 214 22 q 205 20 195 20 q 174 20 174 23 l 174 165 l 34 165 q 32 165 30 173 q 29 181 29 191 q 29 200 30 207 q 31 214 33 214 l 174 214 l 174 354 q 174 356 182 358 q 190 359 199 359 q 208 359 216 358 q 223 356 223 354 l 223 214 l 364 214 q 366 214 368 206 q 369 199 369 190 z"},"G":{"x_min":0,"x_max":719,"ha":719,"o":"m 49 306 q 49 402 98 478 q 148 553 234 594 q 321 636 428 636 q 475 636 523 628 q 571 621 600 609 q 609 606 612 602 q 614 597 615 586 l 628 447 q 628 444 623 443 q 618 442 616 446 q 581 523 520 566 q 458 609 379 609 q 277 609 224 538 q 170 467 170 344 q 170 245 204 168 q 238 90 298 48 q 359 5 434 5 q 475 5 497 14 q 519 23 529 49 q 539 75 539 126 q 539 178 533 198 q 527 219 508 226 q 488 233 440 233 q 434 233 434 241 q 434 244 436 246 q 437 249 439 249 q 524 244 576 244 q 627 244 682 247 q 684 247 686 244 q 687 242 687 240 q 687 233 682 233 q 664 234 657 226 q 650 219 648 196 q 646 174 646 116 q 646 71 650 52 q 653 33 653 28 q 653 22 650 20 q 648 18 641 16 q 512 -12 409 -12 q 299 -12 217 30 q 135 72 92 144 q 49 217 49 306 z"},"q":{"x_min":0,"x_max":502,"ha":502,"o":"m 491 -275 q 465 -275 449 -274 l 389 -273 l 318 -274 q 299 -275 264 -275 q 262 -275 262 -269 q 262 -263 264 -263 q 298 -263 314 -258 q 330 -252 336 -238 q 342 -224 342 -194 l 342 56 q 309 24 275 6 q 241 -13 198 -13 q 153 -13 115 8 q 77 29 54 71 q 32 113 32 173 q 32 245 64 296 q 96 347 148 373 q 199 399 256 399 q 340 399 399 359 l 480 388 l 482 389 q 485 389 486 384 q 487 379 484 378 q 459 365 447 345 q 435 325 435 295 l 435 -194 q 435 -224 440 -238 q 444 -252 456 -258 q 467 -263 491 -263 q 494 -263 494 -269 q 494 -275 491 -275 z m 342 75 l 342 263 q 342 302 325 328 q 308 354 283 366 q 258 378 235 378 q 185 378 160 336 q 135 293 135 212 q 135 125 164 82 q 193 40 244 40 q 293 40 342 75 z"},"d":{"x_min":0,"x_max":510,"ha":510,"o":"m 503 65 q 506 65 508 60 q 511 55 509 54 l 371 -13 l 366 -14 q 357 -14 350 5 q 342 24 340 57 q 266 -13 189 -13 q 145 -13 110 10 q 74 33 53 78 q 32 122 32 182 q 32 258 68 306 q 103 355 156 377 q 208 399 261 399 q 298 399 339 387 l 339 589 q 339 624 332 639 q 326 654 310 654 q 297 654 273 643 l 272 643 q 268 643 266 648 q 263 654 265 655 l 412 724 l 416 725 q 421 725 427 720 q 433 716 433 712 l 433 116 q 433 82 440 68 q 446 54 461 54 q 474 54 502 65 z m 339 77 l 339 82 l 339 325 q 321 350 298 362 q 276 373 246 373 q 192 373 164 336 q 135 298 135 214 q 135 130 165 82 q 195 35 244 35 q 294 35 339 77 z"},"1":{"x_min":0,"x_max":391,"ha":391,"o":"m 43 12 q 85 12 108 18 q 130 23 140 38 q 150 52 150 81 l 150 433 q 150 508 115 508 q 91 508 44 476 l 42 475 q 39 475 36 480 q 34 484 36 485 l 241 632 q 245 634 248 634 q 250 634 252 632 q 255 629 255 627 l 255 81 q 255 52 264 38 q 273 23 295 18 q 317 12 361 12 q 364 12 364 6 q 364 0 361 0 q 320 0 295 1 l 202 2 l 110 1 q 85 0 43 0 q 41 0 41 6 q 41 12 43 12 z"},"5":{"x_min":0,"x_max":450,"ha":450,"o":"m 407 188 q 407 93 350 40 q 292 -12 202 -12 q 155 -12 118 6 q 81 25 49 63 l 48 65 q 48 69 52 72 q 56 74 58 71 q 77 50 106 40 q 135 29 166 29 q 231 29 263 70 q 295 110 295 177 q 295 253 260 300 q 225 346 159 346 q 130 346 108 340 q 85 334 80 333 q 75 333 72 336 q 69 340 70 345 l 102 613 q 103 620 105 622 q 107 625 115 625 q 251 625 296 626 q 341 628 355 633 q 369 638 377 654 q 378 656 383 656 q 388 655 387 651 l 370 540 q 368 528 364 524 q 359 520 347 520 l 136 525 q 123 525 120 511 l 101 362 q 157 380 208 380 q 301 380 354 330 q 407 280 407 188 z"}}}
